<svg width="1342" height="877" viewBox="0 0 1342 877" fill="none" xmlns="http://www.w3.org/2000/svg">
<rect width="1342" height="877" fill="white"/>
<rect width="1342" height="63" fill="#5FA384"/>
<path d="M899.928 221.256H901.896V221.928C901.896 223.72 901.352 225.352 900.264 226.824C899.208 228.296 897.768 229.544 895.944 230.568C894.152 231.592 892.168 232.36 889.992 232.872L888.984 230.952C890.904 230.536 892.68 229.912 894.312 229.08C895.976 228.216 897.32 227.176 898.344 225.96C899.4 224.712 899.928 223.368 899.928 221.928V221.256ZM900.36 221.256H902.376V221.928C902.376 223.304 902.888 224.568 903.912 225.72C904.968 226.872 906.328 227.848 907.992 228.648C909.656 229.448 911.448 230.04 913.368 230.424L912.36 232.392C910.184 231.912 908.184 231.192 906.36 230.232C904.568 229.24 903.112 228.04 901.992 226.632C900.904 225.224 900.36 223.656 900.36 221.928V221.256ZM889.896 219.672H912.408V221.736H889.896V219.672ZM899.88 230.664H902.424V237.048H899.88V230.664ZM899.88 215.544H902.376V220.44H899.88V215.544ZM893.304 242.424H920.328V250.872H895.896V256.68H893.4V248.856H917.832V244.488H893.304V242.424ZM893.4 255.72H922.056V257.832H893.4V255.72ZM917.784 215.64H920.328V240.36H917.784V215.64ZM918.984 226.584H927.144V228.744H918.984V226.584ZM888.024 238.488L887.64 236.328C890.232 236.328 893.064 236.312 896.136 236.28C899.208 236.216 902.344 236.088 905.544 235.896C908.776 235.672 911.848 235.336 914.76 234.888L915 236.808C911.96 237.32 908.84 237.704 905.64 237.96C902.44 238.184 899.336 238.328 896.328 238.392C893.32 238.456 890.552 238.488 888.024 238.488ZM951.62 222.168H964.916V224.328H951.62V222.168ZM951.62 232.248H964.916V234.408H951.62V232.248ZM943.412 218.328C945.492 218.328 947.348 218.76 948.98 219.624C950.612 220.456 951.892 221.624 952.82 223.128C953.78 224.6 954.26 226.328 954.26 228.312C954.26 230.296 953.78 232.04 952.82 233.544C951.892 235.016 950.612 236.184 948.98 237.048C947.348 237.88 945.492 238.296 943.412 238.296C941.332 238.296 939.476 237.88 937.844 237.048C936.212 236.184 934.916 235.016 933.956 233.544C933.028 232.04 932.564 230.296 932.564 228.312C932.564 226.328 933.028 224.6 933.956 223.128C934.916 221.624 936.212 220.456 937.844 219.624C939.476 218.76 941.332 218.328 943.412 218.328ZM943.412 220.536C941.812 220.536 940.372 220.888 939.092 221.592C937.844 222.264 936.852 223.176 936.116 224.328C935.38 225.48 935.012 226.808 935.012 228.312C935.012 229.784 935.38 231.112 936.116 232.296C936.852 233.448 937.844 234.36 939.092 235.032C940.372 235.704 941.812 236.04 943.412 236.04C945.012 236.04 946.436 235.704 947.684 235.032C948.964 234.36 949.956 233.448 950.66 232.296C951.396 231.112 951.764 229.784 951.764 228.312C951.764 226.808 951.396 225.48 950.66 224.328C949.956 223.176 948.964 222.264 947.684 221.592C946.436 220.888 945.012 220.536 943.412 220.536ZM964.052 215.64H966.644V241.128H964.052V215.64ZM952.82 242.184C955.732 242.184 958.228 242.504 960.308 243.144C962.388 243.784 963.988 244.696 965.108 245.88C966.26 247.064 966.836 248.504 966.836 250.2C966.836 251.928 966.26 253.384 965.108 254.568C963.988 255.752 962.388 256.664 960.308 257.304C958.228 257.944 955.732 258.264 952.82 258.264C949.908 258.264 947.412 257.944 945.332 257.304C943.252 256.664 941.636 255.752 940.484 254.568C939.364 253.384 938.804 251.928 938.804 250.2C938.804 248.504 939.364 247.064 940.484 245.88C941.636 244.696 943.252 243.784 945.332 243.144C947.412 242.504 949.908 242.184 952.82 242.184ZM952.82 244.296C950.484 244.296 948.452 244.536 946.724 245.016C945.028 245.496 943.7 246.184 942.74 247.08C941.78 247.944 941.3 248.984 941.3 250.2C941.3 251.416 941.78 252.472 942.74 253.368C943.7 254.264 945.028 254.952 946.724 255.432C948.452 255.912 950.484 256.152 952.82 256.152C955.156 256.152 957.172 255.912 958.868 255.432C960.596 254.952 961.924 254.264 962.852 253.368C963.812 252.472 964.292 251.416 964.292 250.2C964.292 248.984 963.812 247.944 962.852 247.08C961.924 246.184 960.596 245.496 958.868 245.016C957.172 244.536 955.156 244.296 952.82 244.296ZM1020.49 215.64H1023.03V246.84H1020.49V215.64ZM990.149 219.816H1015.11V221.832H990.149V219.816ZM1002.68 224.04C1004.69 224.04 1006.42 224.296 1007.86 224.808C1009.33 225.288 1010.49 225.992 1011.32 226.92C1012.15 227.816 1012.57 228.904 1012.57 230.184C1012.57 231.496 1012.15 232.616 1011.32 233.544C1010.49 234.472 1009.33 235.176 1007.86 235.656C1006.42 236.136 1004.69 236.376 1002.68 236.376C1000.69 236.376 998.949 236.136 997.445 235.656C995.973 235.176 994.837 234.472 994.037 233.544C993.237 232.616 992.837 231.496 992.837 230.184C992.837 228.904 993.237 227.816 994.037 226.92C994.837 225.992 995.973 225.288 997.445 224.808C998.949 224.296 1000.69 224.04 1002.68 224.04ZM1002.68 225.96C1000.44 225.96 998.629 226.344 997.253 227.112C995.877 227.88 995.189 228.904 995.189 230.184C995.189 231.464 995.877 232.504 997.253 233.304C998.629 234.072 1000.44 234.456 1002.68 234.456C1004.95 234.456 1006.76 234.072 1008.1 233.304C1009.45 232.504 1010.12 231.464 1010.12 230.184C1010.12 228.904 1009.45 227.88 1008.1 227.112C1006.76 226.344 1004.95 225.96 1002.68 225.96ZM1001.38 215.352H1003.93V220.728H1001.38V215.352ZM1001.38 235.608H1003.93V240.984H1001.38V235.608ZM989.045 242.664L988.613 240.408C991.301 240.408 994.213 240.392 997.349 240.36C1000.52 240.328 1003.75 240.216 1007.05 240.024C1010.34 239.8 1013.51 239.464 1016.55 239.016L1016.69 240.936C1013.56 241.448 1010.36 241.832 1007.09 242.088C1003.83 242.344 1000.65 242.504 997.541 242.568C994.469 242.632 991.637 242.664 989.045 242.664ZM1007.96 244.92H1010.17V245.4C1010.17 247.224 1009.69 248.872 1008.73 250.344C1007.8 251.784 1006.55 253.032 1004.98 254.088C1003.45 255.144 1001.73 256.008 999.845 256.68C997.989 257.384 996.117 257.912 994.229 258.264L993.221 256.248C994.917 255.992 996.629 255.56 998.357 254.952C1000.09 254.344 1001.67 253.592 1003.11 252.696C1004.58 251.768 1005.75 250.696 1006.61 249.48C1007.51 248.232 1007.96 246.872 1007.96 245.4V244.92ZM1008.25 244.92H1010.5V245.4C1010.5 246.872 1010.93 248.232 1011.8 249.48C1012.69 250.696 1013.86 251.768 1015.3 252.696C1016.77 253.592 1018.36 254.344 1020.05 254.952C1021.78 255.56 1023.49 255.992 1025.19 256.248L1024.23 258.264C1022.34 257.912 1020.45 257.384 1018.57 256.68C1016.68 256.008 1014.95 255.144 1013.38 254.088C1011.85 253.032 1010.6 251.784 1009.64 250.344C1008.71 248.872 1008.25 247.224 1008.25 245.4V244.92ZM1050.63 217.272H1052.88V219.96C1052.88 221.56 1052.53 223.064 1051.83 224.472C1051.15 225.848 1050.23 227.112 1049.04 228.264C1047.89 229.384 1046.58 230.376 1045.11 231.24C1043.67 232.104 1042.15 232.824 1040.55 233.4C1038.98 233.976 1037.46 234.392 1035.99 234.648L1034.88 232.584C1036.19 232.392 1037.57 232.04 1039.01 231.528C1040.48 231.016 1041.91 230.376 1043.28 229.608C1044.66 228.84 1045.89 227.96 1046.98 226.968C1048.1 225.976 1048.98 224.888 1049.62 223.704C1050.29 222.52 1050.63 221.272 1050.63 219.96V217.272ZM1051.06 217.272H1053.27V219.96C1053.27 221.24 1053.6 222.472 1054.27 223.656C1054.95 224.808 1055.84 225.88 1056.96 226.872C1058.08 227.864 1059.31 228.76 1060.66 229.56C1062.03 230.328 1063.44 230.984 1064.88 231.528C1066.35 232.04 1067.73 232.392 1069.01 232.584L1067.91 234.648C1066.47 234.392 1064.96 233.976 1063.39 233.4C1061.83 232.792 1060.31 232.056 1058.83 231.192C1057.36 230.296 1056.03 229.288 1054.85 228.168C1053.7 227.048 1052.77 225.8 1052.07 224.424C1051.39 223.016 1051.06 221.528 1051.06 219.96V217.272ZM1050.63 241.752H1053.12V258.408H1050.63V241.752ZM1032.58 240.216H1071.27V242.424H1032.58V240.216Z" fill="#5FA384"/>
<line x1="689" y1="465.5" x2="1271" y2="465.5" stroke="#5FA384"/>
<path d="M918.024 551.64H920.568V575.88H918.024V551.64ZM919.896 561.912H927.336V564.168H919.896V561.912ZM894.168 578.424H920.568V593.736H894.168V578.424ZM918.072 580.536H896.664V591.576H918.072V580.536ZM889.944 553.848H892.488V570.744H889.944V553.848ZM889.944 569.736H893.16C896.36 569.736 899.576 569.608 902.808 569.352C906.072 569.064 909.496 568.552 913.08 567.816L913.416 569.976C909.736 570.744 906.264 571.272 903 571.56C899.736 571.848 896.456 571.992 893.16 571.992H889.944V569.736ZM931.796 574.536H970.436V576.696H931.796V574.536ZM936.98 591.144H966.212V593.352H936.98V591.144ZM936.98 581.016H939.572V591.768H936.98V581.016ZM951.092 553.176C954.132 553.176 956.756 553.512 958.964 554.184C961.172 554.856 962.884 555.816 964.1 557.064C965.316 558.28 965.924 559.768 965.924 561.528C965.924 563.288 965.316 564.792 964.1 566.04C962.884 567.288 961.172 568.248 958.964 568.92C956.756 569.592 954.132 569.928 951.092 569.928C948.084 569.928 945.476 569.592 943.268 568.92C941.06 568.248 939.348 567.288 938.132 566.04C936.916 564.792 936.308 563.288 936.308 561.528C936.308 559.768 936.916 558.28 938.132 557.064C939.348 555.816 941.06 554.856 943.268 554.184C945.476 553.512 948.084 553.176 951.092 553.176ZM951.092 555.336C948.692 555.336 946.58 555.592 944.756 556.104C942.932 556.616 941.508 557.336 940.484 558.264C939.46 559.16 938.948 560.248 938.948 561.528C938.948 562.808 939.46 563.912 940.484 564.84C941.508 565.768 942.932 566.488 944.756 567C946.58 567.512 948.692 567.768 951.092 567.768C953.556 567.768 955.7 567.512 957.524 567C959.348 566.488 960.756 565.768 961.748 564.84C962.772 563.912 963.284 562.808 963.284 561.528C963.284 560.248 962.772 559.16 961.748 558.264C960.756 557.336 959.348 556.616 957.524 556.104C955.7 555.592 953.556 555.336 951.092 555.336ZM1000.23 555.576H1002.39V564.12C1002.39 566.392 1002.04 568.616 1001.33 570.792C1000.66 572.936 999.733 574.952 998.549 576.84C997.365 578.728 996.037 580.392 994.565 581.832C993.093 583.272 991.589 584.408 990.053 585.24L988.373 583.128C989.813 582.424 991.237 581.416 992.645 580.104C994.053 578.76 995.317 577.24 996.437 575.544C997.589 573.816 998.501 571.976 999.173 570.024C999.877 568.072 1000.23 566.104 1000.23 564.12V555.576ZM1000.57 555.576H1002.73V564.12C1002.73 566.072 1003.06 567.992 1003.73 569.88C1004.44 571.736 1005.37 573.512 1006.52 575.208C1007.67 576.872 1008.95 578.328 1010.36 579.576C1011.77 580.824 1013.19 581.8 1014.63 582.504L1013 584.52C1011.49 583.752 1010.01 582.68 1008.53 581.304C1007.06 579.896 1005.72 578.28 1004.5 576.456C1003.32 574.632 1002.36 572.68 1001.62 570.6C1000.92 568.488 1000.57 566.328 1000.57 564.12V555.576ZM1020.58 551.592H1023.13V594.456H1020.58V551.592ZM1062.96 551.64H1065.51V583.272H1062.96V551.64ZM1064.59 565.224H1072.23V567.432H1064.59V565.224ZM1051.39 555H1054.08C1054.08 558.584 1053.23 561.864 1051.54 564.84C1049.87 567.784 1047.54 570.376 1044.53 572.616C1041.52 574.824 1038 576.6 1033.97 577.944L1032.87 575.784C1036.55 574.568 1039.76 573 1042.51 571.08C1045.3 569.128 1047.47 566.872 1049.04 564.312C1050.61 561.752 1051.39 558.952 1051.39 555.912V555ZM1034.55 555H1052.59V557.208H1034.55V555ZM1039.44 591.144H1067.67V593.352H1039.44V591.144ZM1039.44 580.056H1041.99V591.912H1039.44V580.056Z" fill="#5FA384"/>
<path d="M68 105H591V826H68V105Z" fill="#D9D9D9"/>
</svg>
